# xmcd CD database file
#
# Track frame offsets:
#	150
#	19147
#	35700
#	49237
#	68850
#	80202
#	97290
#	119480
#	139262
#	158762
#	172765
#	186827
#	203840
#	223060
#
# Disc length: 3103 seconds
#
# Revision: 4
# Processed by: cddbd v1.5.1PL0 Copyright (c) Steve Scherf et al.
# Submitted via: CDex 1.51
#
DISCID=d40c1d0e
DTITLE=Flavio Venturini - Meus Momentos
DYEAR=1994
DGENRE=MPB
TTITLE0=Nascente
TTITLE1=Espanhola
TTITLE2=Princesa
TTITLE3=No trem do amor
TTITLE4=Noites de junho
TTITLE5=Solidão
TTITLE6=Chama no coração
TTITLE7=Alice
TTITLE8=São Tomé
TTITLE9=Preciosa
TTITLE10=Pensando em você
TTITLE11=Caramelo
TTITLE12=Andarilho de luz
TTITLE13=Rouxinol (Um jardineiro diz a rosa... )
EXTD=YEAR: 1994
EXTT0=
EXTT1=
EXTT2=
EXTT3=
EXTT4=
EXTT5=
EXTT6=
EXTT7=
EXTT8=
EXTT9=
EXTT10=
EXTT11=
EXTT12=
EXTT13=
PLAYORDER=
